<?xml version="1.0" encoding="utf-8"?>
<!-- Svg Vector Icons : http://www.onlinewebfonts.com/icon -->
<!DOCTYPE svg PUBLIC "-//W3C//DTD SVG 1.1//EN" "http://www.w3.org/Graphics/SVG/1.1/DTD/svg11.dtd">
<svg version="1.1" xmlns="http://www.w3.org/2000/svg" xmlns:xlink="http://www.w3.org/1999/xlink" x="0px" y="0px" viewBox="0 0 1000 1000" enable-background="new 0 0 1000 1000" xml:space="preserve">
<metadata> Svg Vector Icons : http://www.onlinewebfonts.com/icon </metadata>
<g><path fill="#676767" d="M402.7,724.8h-3.4c-0.7,0-1.4,0-2.1,0l0,0c-6.9-0.7-13.7-3.4-19.9-7.5l-6.9-5.5l6.9-7.5l-7.5,6.9l-1.4-1.4c0-0.7-0.7-0.7-1.4-1.4l0,0c-0.7-0.7-0.7-1.4-1.4-1.4l0,0v-0.7c-2.7-3.4-4.8-7.5-6.2-11.6l0,0c0-0.7-0.7-1.4-0.7-2.1v-0.7c0-0.7,0-1.4-0.7-2.1l-1.4-7.5v-0.7v-0.7V321.1c0-9.6,2.7-18.5,8.2-26l1.4-2.1c0,0,0.7-0.7,0.7-1.4l6.9-6.9l2.1-1.4c7.5-4.1,14.4-6.9,21.2-7.5c0.7,0,1.4,0,2.1,0h0.7c0,0,0.7,0,1.4,0h1.4l11,1.4l3.4,1.4c0.7,0,1.4,0.7,2.1,0.7c0.7-0.7,1.4,0,2.1,0s1.4,0.7,2.1,0.7c0.7,0.7,1.4,0.7,2.1,1.4l310.4,178.9c3.4,2.1,6.9,4.1,9.6,7.5l2.1,2.1l0.7,0.7l0.7,0.7c0,0,0.7,0.7,0.7,1.4c0,0,0,0.7,0.7,0.7c0,0,0.7,0.7,0.7,1.4l2.1,4.1l-8.9,5.5l8.9-4.8l2.1,5.5c2.1,4.8,2.7,9.6,2.7,15.1v0.7v1.4c0,4.8-1.4,9.6-2.7,14.4l0,0c0,0.7-0.7,1.4-0.7,2.1l-7.5,11.7c0,0-0.7,0.7-0.7,1.4l-1.4,1.4c-3.4,2.7-6.2,5.5-10.3,7.5L425.3,718.6l0,0l-0.7,0.7c0,0-0.7,0.7-1.4,0.7c-0.7,0.7-1.4,0.7-2.1,1.4c-0.7,0-1.4,0.7-2.1,0.7c-0.7,0.7-1.4,0.7-2.1,0.7c-0.7,0-1.4,0.7-2.1,0.7L402.7,724.8z M399.9,704.2h2.7v10.3v-10.3v0.7v-0.7v0.7l1.4,9.6l-0.7-10.3l3.4-0.7l2.7,9.6l-2.1-10.3l3.4-0.7l0,0l3.4-1.4l310.4-178.9c2.1-1.4,4.1-2.7,5.5-4.1l2.7-2.7l8.9,4.8l-8.9-5.5l1.4-2.7h0.7V511l0,0l0.7-1.4c0.7-2.7,1.4-5.5,1.4-8.2l10.3-0.7l-10.3-0.7c0-2.7-0.7-5.5-1.4-8.2l-0.7-1.4l8.9-5.5l-9.6,4.1l8.2-6.2l-8.9,4.8V487l8.2-6.2l-8.9,5.5v-1.4l7.5-6.9l-8.2,6.2l-1.4-1.4l0,0l0,0l0,0c-1.4-1.4-3.4-2.7-5.5-4.1L413,298.5l-5.5-1.4l0.7-11l-2.1,10.3v-10.3l-1.4,10.3h-3.4h-2.1c-4.1,0.7-7.5,2.1-11,4.1l-0.7,0.7l-6.9-7.5l6.2,8.2l-4.1,4.8c-2.7,4.1-4.8,8.9-4.8,14.4v360.5l-10.3,1.4l10.3-0.7l1.4,6.2c0.7,2.1,2.1,4.8,3.4,6.9l0,0l2.1,2.7l-6.9,7.5l7.5-6.9l0.7,0.7l-6.2,8.2l6.9-7.5l2.1,1.4C392.4,702.2,395.8,703.5,399.9,704.2L399.9,704.2z M740.5,512.3l5.5,1.4l-4.8-1.4H740.5z"/><path fill="#676767" d="M500,990C230,990,10,770,10,500C10,230,230,10,500,10c270,0,490,220,490,490C990,770,770,990,500,990z M500,30.6C241,30.6,30.6,241,30.6,500S241,969.4,500,969.4S969.4,759,969.4,500S759,30.6,500,30.6z"/></g>
</svg>
